<svg xmlns="http://www.w3.org/2000/svg" width="781" height="651" viewBox="0 0 781 651" fill="none">
<g opacity="0.2">
<path d="M426.76 305.517L426.281 304.687C378.652 222.19 401.824 118.714 490.948 67.2579C545.677 35.6603 588.956 34.9968 631.212 45.9729L617.632 116.268C583.524 108.878 553.544 109.607 524.525 126.361C475.604 154.605 463.823 215.573 492.546 265.323L493.025 266.153C521.748 315.903 580.098 337.486 629.838 308.769C662.995 289.626 675.648 264.634 686.48 230.738L750.811 248.322C739.379 297.478 717.714 336.523 661.746 368.836C576.349 418.14 474.869 388.844 426.76 305.517Z" fill="white"/>
<path d="M253.814 405.353L253.334 404.524C205.711 322.037 228.872 218.567 318.007 167.105C372.736 135.507 416.015 134.844 458.271 145.82L444.691 216.115C410.583 208.725 380.603 209.454 351.584 226.208C302.663 254.452 290.882 315.419 319.605 365.17L320.084 366C348.808 415.75 407.157 437.333 456.897 408.616C490.054 389.473 502.707 364.481 513.539 330.585L577.87 348.169C566.438 397.325 544.773 436.37 488.805 468.683C403.409 517.986 301.928 488.691 253.82 405.364L253.814 405.353Z" stroke="white" stroke-width="4" stroke-miterlimit="10" stroke-dasharray="4.76 4.76"/>
<path d="M87.1223 501.759L86.6433 500.929C39.0134 418.432 62.1855 314.956 151.31 263.5C206.039 231.902 249.318 231.239 291.574 242.215L277.994 312.51C243.886 305.12 213.905 305.849 184.887 322.603C135.966 350.848 124.184 411.815 152.908 461.565L153.387 462.395C182.11 512.146 240.46 533.728 290.2 505.011C323.357 485.868 336.01 460.876 346.842 426.98L411.173 444.564C399.741 493.72 378.075 532.765 322.107 565.078C236.711 614.382 135.231 585.086 87.1223 501.759Z" stroke="white" stroke-width="4" stroke-miterlimit="10"/>
</g>
</svg>