<svg width="40" height="40" viewBox="0 0 40 40" fill="none" xmlns="http://www.w3.org/2000/svg">
<rect width="40" height="40" rx="8" fill="#E9E9E9"/>
<path d="M24.4593 24.0365C23.4191 26.2695 21.1775 27.7278 18.6667 27.7278C15.1405 27.7278 12.2719 24.8592 12.2719 21.333C12.2719 17.8068 15.1405 14.9382 18.6667 14.9382C20.1488 14.9382 21.5929 15.4566 22.7336 16.3976L25.4527 13.1028C23.5489 11.5314 21.1388 10.6663 18.6667 10.6663C12.7851 10.6667 8 15.4518 8 21.3334C8 27.2149 12.7851 32 18.6667 32C23.2666 32 27.3335 29.07 28.7873 24.7093C28.8614 24.4872 28.9261 24.2626 28.9852 24.0368H24.4593V24.0365Z" fill="#D9D9D9"/>
<path d="M31.3175 12.4671C31.7225 12.0937 31.9892 11.557 31.9937 10.7946C31.9844 9.18271 30.8069 8 28.8978 8C27.3495 8 26.2806 8.61441 25.5435 9.48694L26.8459 10.728C27.4358 10.0645 28.0502 9.69595 28.9223 9.69595C29.6349 9.69595 30.1389 10.0377 30.1389 10.6767V10.7652C30.1389 11.4655 29.5122 11.7951 28.4556 11.7951H27.6694V13.1448H27.6746V13.1611H28.4608C29.5178 13.1611 30.1441 13.5226 30.1441 14.223V14.2795C30.1441 14.9185 29.6402 15.2919 28.9276 15.2919C28.0554 15.2919 27.441 14.9233 26.8511 14.2598L25.693 15.6634C26.4234 16.4489 27.4529 16.9878 28.9034 16.9878C30.8203 16.9878 31.9996 15.8278 31.9996 14.2059V14.1493C31.9996 13.3731 31.7292 12.8368 31.3175 12.4679V12.4671Z" fill="#D9D9D9"/>
<path d="M31.9941 10.7753C31.9941 10.782 31.9938 10.7884 31.9938 10.7951C31.9938 10.8018 31.9941 10.8082 31.9941 10.8146V10.7753Z" fill="#D9D9D9"/>
</svg>
