<svg width="42" height="42" viewBox="0 0 42 42" fill="none" xmlns="http://www.w3.org/2000/svg">
<mask id="path-1-inside-1_310_238" fill="white">
<path fill-rule="evenodd" clip-rule="evenodd" d="M4.35977 12.6803H9.05726L1.26835 4.8916C0.621253 4.2445 0.368545 3.30136 0.605419 2.41741C0.842273 1.53346 1.53273 0.843032 2.41667 0.606157C3.30067 0.369304 4.24377 0.621997 4.89086 1.26909L12.6797 9.05789V4.3604C12.6761 3.63581 12.9799 2.94393 13.5155 2.45581C14.0509 1.9679 14.7682 1.72977 15.4893 1.8004C16.1361 1.88104 16.7303 2.19831 17.157 2.69122C17.5837 3.18392 17.8126 3.81746 17.7997 4.46914V12.6803C17.7997 14.0383 17.2604 15.3406 16.3001 16.3008C15.3399 17.261 14.0376 17.8003 12.6797 17.8003H4.46851C3.81683 17.8133 3.1833 17.5843 2.69059 17.1576C2.19768 16.731 1.88039 16.1368 1.79977 15.4899C1.72915 14.7688 1.96726 14.0515 2.45518 13.5161C2.94329 12.9805 3.63518 12.6768 4.35977 12.6803ZM8.35949 24.3989C8.27365 23.8125 7.98053 23.2762 7.53303 22.8877C7.08574 22.4989 6.51367 22.2835 5.92114 22.2806H5.73551C5.02778 22.2768 4.35301 22.5783 3.88362 23.1079C3.41424 23.6373 3.19572 24.3433 3.28426 25.0454C3.97029 29.7689 6.39092 34.0678 10.0747 37.103C13.7584 40.1382 18.4405 41.6932 23.208 41.4638C27.9755 41.2345 32.4869 39.2376 35.8619 35.8622C39.2371 32.4873 41.2341 27.9758 41.4635 23.2084C41.6928 18.4409 40.138 13.7588 37.1026 10.075C34.0672 6.39131 29.7682 3.97104 25.045 3.28464C24.3442 3.19631 23.639 3.41402 23.1098 3.88192C22.5806 4.34983 22.2783 5.02299 22.2802 5.72944V5.91507C22.2831 6.50776 22.4985 7.07965 22.8873 7.52717C23.2758 7.97446 23.8121 8.26781 24.3986 8.35341C27.8475 8.87862 30.9788 10.6657 33.1852 13.368C35.3917 16.0705 36.5163 19.4954 36.3411 22.9802C36.1659 26.4646 34.7034 29.76 32.2369 32.2272C29.7704 34.6945 26.4758 36.1584 22.9916 36.3349C19.5072 36.5116 16.0812 35.3882 13.3782 33.183C10.6749 30.9776 8.88677 27.847 8.3601 24.3985L8.35949 24.3989ZM22.3435 26.7607C21.4362 26.7751 20.5458 26.5134 19.7904 26.0105C19.035 25.5078 18.4502 24.7874 18.1131 23.9447C17.9348 23.4668 17.6177 23.0533 17.2027 22.7566C16.7877 22.4602 16.2935 22.2945 15.7835 22.2808H15.5979C14.79 22.2795 14.0325 22.6733 13.5696 23.3354C13.1065 23.9972 12.9965 24.8439 13.2748 25.6024C14.0217 27.6252 15.4279 29.3376 17.2669 30.4637C19.1057 31.5899 21.2702 32.0641 23.4115 31.8101C25.5527 31.556 27.546 30.5885 29.0707 29.0635C30.595 27.5382 31.5615 25.5443 31.8144 23.4027C32.0673 21.2614 31.5919 19.0971 30.4648 17.2587C29.3377 15.4203 27.6246 14.0151 25.6014 13.2691C24.8419 12.9903 23.9939 13.1011 23.3316 13.5657C22.6693 14.0303 22.2764 14.7897 22.2797 15.5986V15.7843C22.2916 16.2945 22.456 16.7897 22.7512 17.2059C23.0466 17.6222 23.4597 17.9405 23.9372 18.1203C24.7801 18.4559 25.5011 19.0392 26.0051 19.7936C26.5091 20.5478 26.7722 21.4372 26.7597 22.3443C26.7288 23.5057 26.2538 24.6114 25.4321 25.4328C24.6107 26.2544 23.505 26.7294 22.3436 26.7603L22.3435 26.7607Z"/>
</mask>
<path fill-rule="evenodd" clip-rule="evenodd" d="M4.35977 12.6803H9.05726L1.26835 4.8916C0.621253 4.2445 0.368545 3.30136 0.605419 2.41741C0.842273 1.53346 1.53273 0.843032 2.41667 0.606157C3.30067 0.369304 4.24377 0.621997 4.89086 1.26909L12.6797 9.05789V4.3604C12.6761 3.63581 12.9799 2.94393 13.5155 2.45581C14.0509 1.9679 14.7682 1.72977 15.4893 1.8004C16.1361 1.88104 16.7303 2.19831 17.157 2.69122C17.5837 3.18392 17.8126 3.81746 17.7997 4.46914V12.6803C17.7997 14.0383 17.2604 15.3406 16.3001 16.3008C15.3399 17.261 14.0376 17.8003 12.6797 17.8003H4.46851C3.81683 17.8133 3.1833 17.5843 2.69059 17.1576C2.19768 16.731 1.88039 16.1368 1.79977 15.4899C1.72915 14.7688 1.96726 14.0515 2.45518 13.5161C2.94329 12.9805 3.63518 12.6768 4.35977 12.6803ZM8.35949 24.3989C8.27365 23.8125 7.98053 23.2762 7.53303 22.8877C7.08574 22.4989 6.51367 22.2835 5.92114 22.2806H5.73551C5.02778 22.2768 4.35301 22.5783 3.88362 23.1079C3.41424 23.6373 3.19572 24.3433 3.28426 25.0454C3.97029 29.7689 6.39092 34.0678 10.0747 37.103C13.7584 40.1382 18.4405 41.6932 23.208 41.4638C27.9755 41.2345 32.4869 39.2376 35.8619 35.8622C39.2371 32.4873 41.2341 27.9758 41.4635 23.2084C41.6928 18.4409 40.138 13.7588 37.1026 10.075C34.0672 6.39131 29.7682 3.97104 25.045 3.28464C24.3442 3.19631 23.639 3.41402 23.1098 3.88192C22.5806 4.34983 22.2783 5.02299 22.2802 5.72944V5.91507C22.2831 6.50776 22.4985 7.07965 22.8873 7.52717C23.2758 7.97446 23.8121 8.26781 24.3986 8.35341C27.8475 8.87862 30.9788 10.6657 33.1852 13.368C35.3917 16.0705 36.5163 19.4954 36.3411 22.9802C36.1659 26.4646 34.7034 29.76 32.2369 32.2272C29.7704 34.6945 26.4758 36.1584 22.9916 36.3349C19.5072 36.5116 16.0812 35.3882 13.3782 33.183C10.6749 30.9776 8.88677 27.847 8.3601 24.3985L8.35949 24.3989ZM22.3435 26.7607C21.4362 26.7751 20.5458 26.5134 19.7904 26.0105C19.035 25.5078 18.4502 24.7874 18.1131 23.9447C17.9348 23.4668 17.6177 23.0533 17.2027 22.7566C16.7877 22.4602 16.2935 22.2945 15.7835 22.2808H15.5979C14.79 22.2795 14.0325 22.6733 13.5696 23.3354C13.1065 23.9972 12.9965 24.8439 13.2748 25.6024C14.0217 27.6252 15.4279 29.3376 17.2669 30.4637C19.1057 31.5899 21.2702 32.0641 23.4115 31.8101C25.5527 31.556 27.546 30.5885 29.0707 29.0635C30.595 27.5382 31.5615 25.5443 31.8144 23.4027C32.0673 21.2614 31.5919 19.0971 30.4648 17.2587C29.3377 15.4203 27.6246 14.0151 25.6014 13.2691C24.8419 12.9903 23.9939 13.1011 23.3316 13.5657C22.6693 14.0303 22.2764 14.7897 22.2797 15.5986V15.7843C22.2916 16.2945 22.456 16.7897 22.7512 17.2059C23.0466 17.6222 23.4597 17.9405 23.9372 18.1203C24.7801 18.4559 25.5011 19.0392 26.0051 19.7936C26.5091 20.5478 26.7722 21.4372 26.7597 22.3443C26.7288 23.5057 26.2538 24.6114 25.4321 25.4328C24.6107 26.2544 23.505 26.7294 22.3436 26.7603L22.3435 26.7607Z" fill="#1B1B1B"/>
<path d="M9.05726 12.6803V13.1803H10.2644L9.41081 12.3267L9.05726 12.6803ZM4.35977 12.6803L4.35732 13.1803H4.35977V12.6803ZM1.26835 4.8916L0.9148 5.24515L0.914804 5.24516L1.26835 4.8916ZM0.605419 2.41741L1.08838 2.54683L1.08838 2.54682L0.605419 2.41741ZM2.41667 0.606157L2.28727 0.123192L2.28725 0.123197L2.41667 0.606157ZM4.89086 1.26909L5.24441 0.915537V0.915537L4.89086 1.26909ZM12.6797 9.05789L12.3261 9.41144L13.1797 10.265V9.05789H12.6797ZM12.6797 4.3604H13.1797L13.1797 4.35797L12.6797 4.3604ZM13.5155 2.45581L13.1787 2.08624L13.1787 2.08625L13.5155 2.45581ZM15.4893 1.8004L15.5511 1.30406L15.538 1.30278L15.4893 1.8004ZM17.157 2.69122L16.7789 3.01846L16.779 3.01855L17.157 2.69122ZM17.7997 4.46914L17.2997 4.45923V4.46914H17.7997ZM16.3001 16.3008L15.9466 15.9472L16.3001 16.3008ZM4.46851 17.8003V17.3002L4.45861 17.3004L4.46851 17.8003ZM2.69059 17.1576L3.01791 16.7796L3.01783 16.7796L2.69059 17.1576ZM1.79977 15.4899L1.30197 15.5386L1.3036 15.5517L1.79977 15.4899ZM2.45518 13.5161L2.82475 13.8529L2.82475 13.8529L2.45518 13.5161ZM7.53303 22.8877L7.20504 23.2651L7.20523 23.2652L7.53303 22.8877ZM8.35949 24.3989L7.86476 24.4713L7.98533 25.2952L8.65587 24.8016L8.35949 24.3989ZM5.92114 22.2806L5.92361 21.7806H5.92114V22.2806ZM5.73551 22.2806L5.73286 22.7806H5.73551V22.2806ZM3.88362 23.1079L4.25774 23.4396L4.2578 23.4395L3.88362 23.1079ZM3.28426 25.0454L2.7881 25.108L2.78945 25.1173L3.28426 25.0454ZM10.0747 37.103L10.3926 36.7171L10.0747 37.103ZM23.208 41.4638L23.232 41.9633L23.208 41.4638ZM35.8619 35.8622L35.5083 35.5087L35.5083 35.5087L35.8619 35.8622ZM41.4635 23.2084L41.9629 23.2324V23.2324L41.4635 23.2084ZM37.1026 10.075L36.7167 10.393L37.1026 10.075ZM25.045 3.28464L25.1169 2.78975L25.1075 2.78856L25.045 3.28464ZM23.1098 3.88192L22.7786 3.50735L22.7786 3.50735L23.1098 3.88192ZM22.2802 5.72944H22.7802L22.7802 5.72812L22.2802 5.72944ZM22.2802 5.91507H21.7802L21.7802 5.91753L22.2802 5.91507ZM22.8873 7.52717L23.2648 7.19928L23.2648 7.19927L22.8873 7.52717ZM24.3986 8.35341L24.4738 7.8591L24.4708 7.85865L24.3986 8.35341ZM33.1852 13.368L33.5725 13.0518L33.5725 13.0517L33.1852 13.368ZM36.3411 22.9802L36.8404 23.0054V23.0053L36.3411 22.9802ZM32.2369 32.2272L31.8833 31.8737L31.8833 31.8737L32.2369 32.2272ZM22.9916 36.3349L22.9663 35.8355L22.9662 35.8355L22.9916 36.3349ZM13.3782 33.183L13.6943 32.7956L13.6943 32.7956L13.3782 33.183ZM8.3601 24.3985L8.85437 24.323L8.72955 23.5057L8.06371 23.9958L8.3601 24.3985ZM19.7904 26.0105L20.0675 25.5943L20.0674 25.5943L19.7904 26.0105ZM22.3435 26.7607L22.3514 27.2607L22.732 27.2546L22.8275 26.8861L22.3435 26.7607ZM18.1131 23.9447L17.6445 24.1196L17.6489 24.1304L18.1131 23.9447ZM17.2027 22.7566L17.4935 22.3499L17.4933 22.3498L17.2027 22.7566ZM15.7835 22.2808L15.797 21.7808H15.7835V22.2808ZM15.5979 22.2808L15.5971 22.7808H15.5979V22.2808ZM13.5696 23.3354L13.9793 23.622L13.9794 23.6218L13.5696 23.3354ZM13.2748 25.6024L12.8054 25.7747L12.8058 25.7756L13.2748 25.6024ZM17.2669 30.4637L17.5281 30.0373L17.528 30.0373L17.2669 30.4637ZM23.4115 31.8101L23.4703 32.3066L23.4704 32.3066L23.4115 31.8101ZM29.0707 29.0635L29.4242 29.417L29.4243 29.4169L29.0707 29.0635ZM31.8144 23.4027L31.3178 23.344L31.3178 23.344L31.8144 23.4027ZM30.4648 17.2587L30.8911 16.9973L30.891 16.9973L30.4648 17.2587ZM25.6014 13.2691L25.7744 12.7999L25.7737 12.7997L25.6014 13.2691ZM23.3316 13.5657L23.0445 13.1564V13.1564L23.3316 13.5657ZM22.2797 15.5986H22.7797L22.7797 15.5966L22.2797 15.5986ZM22.2797 15.7843H21.7796L21.7799 15.7959L22.2797 15.7843ZM22.7512 17.2059L22.3433 17.4952L22.3434 17.4953L22.7512 17.2059ZM23.9372 18.1203L24.1222 17.6557L24.1134 17.6524L23.9372 18.1203ZM26.0051 19.7936L25.5893 20.0714L25.5894 20.0714L26.0051 19.7936ZM26.7597 22.3443L27.2595 22.3575L27.2596 22.3512L26.7597 22.3443ZM25.4321 25.4328L25.0786 25.0792L25.0785 25.0793L25.4321 25.4328ZM22.3436 26.7603L22.3303 26.2605L21.954 26.2705L21.8596 26.6349L22.3436 26.7603ZM9.05726 12.1803H4.35977V13.1803H9.05726V12.1803ZM0.914804 5.24516L8.70371 13.0339L9.41081 12.3267L1.6219 4.53804L0.914804 5.24516ZM0.122459 2.28799C-0.160654 3.34449 0.141385 4.47174 0.9148 5.24515L1.6219 4.53804C1.10112 4.01726 0.897744 3.25823 1.08838 2.54683L0.122459 2.28799ZM2.28725 0.123197C1.23078 0.406305 0.405546 1.2315 0.122456 2.288L1.08838 2.54682C1.279 1.83543 1.83468 1.27976 2.54609 1.08912L2.28725 0.123197ZM5.24441 0.915537C4.471 0.142124 3.3438 -0.159889 2.28727 0.123192L2.54608 1.08912C3.25754 0.898496 4.01653 1.10187 4.53731 1.62264L5.24441 0.915537ZM13.0332 8.70434L5.24441 0.915537L4.53731 1.62264L12.3261 9.41144L13.0332 8.70434ZM12.1797 4.3604V9.05789H13.1797V4.3604H12.1797ZM13.1787 2.08625C12.5386 2.66963 12.1755 3.49664 12.1797 4.36283L13.1797 4.35797C13.1768 3.77498 13.4212 3.21824 13.8523 2.82537L13.1787 2.08625ZM15.538 1.30278C14.6762 1.21837 13.8188 1.50296 13.1787 2.08624L13.8523 2.82538C14.283 2.43283 14.8602 2.24118 15.4405 2.29802L15.538 1.30278ZM17.535 2.36399C17.0274 1.77755 16.3206 1.40016 15.5511 1.30424L15.4274 2.29656C15.9517 2.36192 16.4332 2.61906 16.7789 3.01846L17.535 2.36399ZM18.2996 4.47905C18.315 3.70382 18.0426 2.95011 17.535 2.3639L16.779 3.01855C17.1247 3.41772 17.3103 3.93111 17.2998 4.45923L18.2996 4.47905ZM18.2997 12.6803V4.46914H17.2997V12.6803H18.2997ZM16.6537 16.6543C17.7077 15.6003 18.2997 14.1709 18.2997 12.6803H17.2997C17.2997 13.9057 16.813 15.0808 15.9466 15.9472L16.6537 16.6543ZM12.6797 18.3003C14.1702 18.3003 15.5997 17.7083 16.6537 16.6543L15.9466 15.9472C15.0802 16.8137 13.905 17.3003 12.6797 17.3003V18.3003ZM4.46851 18.3003H12.6797V17.3003H4.46851V18.3003ZM2.36328 17.5356C2.9495 18.0432 3.70318 18.3156 4.47841 18.3002L4.45861 17.3004C3.93049 17.3109 3.41711 17.1253 3.01791 16.7796L2.36328 17.5356ZM1.3036 15.5517C1.39951 16.3212 1.77694 17.0281 2.36336 17.5357L3.01783 16.7796C2.61842 16.4339 2.36127 15.9523 2.29593 15.4281L1.3036 15.5517ZM2.08561 13.1793C1.50233 13.8194 1.21775 14.6768 1.30215 15.5386L2.29739 15.4412C2.24056 14.8608 2.4322 14.2837 2.82475 13.8529L2.08561 13.1793ZM4.36221 12.1803C3.49601 12.1761 2.66897 12.5392 2.08561 13.1794L2.82475 13.8529C3.2176 13.4218 3.77435 13.1774 4.35732 13.1803L4.36221 12.1803ZM7.20523 23.2652C7.56225 23.5752 7.79623 24.0032 7.86476 24.4713L8.85421 24.3265C8.75107 23.6218 8.3988 22.9772 7.86084 22.5101L7.20523 23.2652ZM5.91866 22.7806C6.39154 22.7829 6.8481 22.9548 7.20504 23.2651L7.86103 22.5103C7.32338 22.043 6.6358 21.7841 5.92361 21.7806L5.91866 22.7806ZM5.73551 22.7806H5.92114V21.7806H5.73551V22.7806ZM4.2578 23.4395C4.63168 23.0177 5.16911 22.7776 5.73286 22.7806L5.73816 21.7806C4.88644 21.7761 4.07434 22.1389 3.50943 22.7763L4.2578 23.4395ZM3.78033 24.9828C3.70982 24.4237 3.88385 23.8613 4.25774 23.4396L3.5095 22.7762C2.94463 23.4132 2.68163 24.263 2.78819 25.1079L3.78033 24.9828ZM10.3926 36.7171C6.80484 33.761 4.44723 29.5741 3.77907 24.9735L2.78945 25.1173C3.49334 29.9638 5.97701 34.3746 9.75671 37.4889L10.3926 36.7171ZM23.184 40.9644C18.5407 41.1878 13.9805 39.6733 10.3926 36.7171L9.75671 37.4889C13.5363 40.6031 18.3404 42.1986 23.232 41.9633L23.184 40.9644ZM35.5083 35.5087C32.2213 38.7962 27.8273 40.7411 23.184 40.9644L23.232 41.9633C28.1236 41.728 32.7526 39.6791 36.2154 36.2158L35.5083 35.5087ZM40.964 23.1843C40.7407 27.8277 38.7956 32.2216 35.5083 35.5087L36.2154 36.2158C39.6785 32.7529 41.7276 28.124 41.9629 23.2324L40.964 23.1843ZM36.7167 10.393C39.6731 13.9808 41.1874 18.541 40.964 23.1843L41.9629 23.2324C42.1982 18.3408 40.6029 13.5367 37.4885 9.75708L36.7167 10.393ZM24.9731 3.77944C29.5734 4.44798 33.7604 6.80524 36.7167 10.393L37.4885 9.75708C34.374 5.97737 29.963 3.4941 25.1169 2.78984L24.9731 3.77944ZM23.441 4.25649C23.8625 3.88377 24.4243 3.71036 24.9825 3.78072L25.1075 2.78856C24.264 2.68226 23.4154 2.94426 22.7786 3.50735L23.441 4.25649ZM22.7802 5.72812C22.7787 5.1654 23.0195 4.62919 23.441 4.25649L22.7786 3.50735C22.1418 4.07048 21.778 4.88057 21.7802 5.73076L22.7802 5.72812ZM22.7802 5.91507V5.72944H21.7802V5.91507H22.7802ZM23.2648 7.19927C22.9544 6.84203 22.7825 6.38558 22.7802 5.91261L21.7802 5.91753C21.7837 6.62993 22.0427 7.31728 22.5098 7.85508L23.2648 7.19927ZM24.4708 7.85865C24.0029 7.79036 23.5749 7.55627 23.2648 7.19928L22.5098 7.85507C22.9768 8.39265 23.6213 8.74527 24.3263 8.84817L24.4708 7.85865ZM33.5725 13.0517C31.2878 10.2535 28.0453 8.40297 24.4738 7.85911L24.3233 8.84771C27.6498 9.35427 30.6699 11.0779 32.7979 13.6842L33.5725 13.0517ZM36.8404 23.0053C37.0219 19.3968 35.8573 15.8502 33.5725 13.0518L32.7979 13.6842C34.926 16.2907 36.0107 19.5941 35.8417 22.9551L36.8404 23.0053ZM32.5905 32.5807C35.1446 30.0258 36.659 26.6134 36.8404 23.0054L35.8417 22.9551C35.6727 26.3158 34.2621 29.4941 31.8833 31.8737L32.5905 32.5807ZM23.0169 36.8343C26.6249 36.6515 30.0365 35.1356 32.5905 32.5807L31.8833 31.8737C29.5044 34.2534 26.3268 35.6653 22.9663 35.8355L23.0169 36.8343ZM13.0622 33.5704C15.8611 35.854 19.4088 37.0172 23.0169 36.8343L22.9662 35.8355C19.6056 36.0059 16.3012 34.9225 13.6943 32.7956L13.0622 33.5704ZM7.86583 24.474C8.4112 28.0449 10.2628 31.2867 13.0622 33.5704L13.6943 32.7956C11.0869 30.6685 9.36233 27.6491 8.85437 24.323L7.86583 24.474ZM8.65587 24.8016L8.65649 24.8012L8.06371 23.9958L8.0631 23.9962L8.65587 24.8016ZM19.5133 26.4268C20.353 26.9858 21.3428 27.2767 22.3514 27.2607L22.3356 26.2608C21.5296 26.2736 20.7386 26.0411 20.0675 25.5943L19.5133 26.4268ZM17.6489 24.1304C18.0235 25.0671 18.6736 25.8679 19.5134 26.4268L20.0674 25.5943C19.3964 25.1477 18.8768 24.5077 18.5773 23.759L17.6489 24.1304ZM16.9119 23.1634C17.246 23.4022 17.5012 23.7351 17.6446 24.1195L18.5815 23.7699C18.3683 23.1986 17.9893 22.7043 17.4935 22.3499L16.9119 23.1634ZM15.7701 22.7806C16.1806 22.7917 16.5782 22.925 16.9121 23.1635L17.4933 22.3498C16.9972 21.9953 16.4065 21.7974 15.797 21.781L15.7701 22.7806ZM15.5979 22.7808H15.7835V21.7808H15.5979V22.7808ZM13.9794 23.6218C14.3485 23.0939 14.9527 22.7798 15.5971 22.7808L15.5987 21.7808C14.6274 21.7793 13.7165 22.2527 13.1598 23.0489L13.9794 23.6218ZM13.7442 25.4302C13.5222 24.8251 13.61 24.1498 13.9793 23.622L13.1599 23.0487C12.603 23.8447 12.4708 24.8627 12.8054 25.7747L13.7442 25.4302ZM17.528 30.0373C15.7848 28.9699 14.4518 27.3466 13.7439 25.4293L12.8058 25.7756C13.5915 27.9037 15.071 29.7054 17.0058 30.8901L17.528 30.0373ZM23.3526 31.3136C21.3228 31.5544 19.271 31.1049 17.5281 30.0373L17.0058 30.8901C18.9403 32.075 21.2176 32.5738 23.4703 32.3066L23.3526 31.3136ZM28.7171 28.7099C27.2718 30.1556 25.3822 31.0727 23.3525 31.3136L23.4704 32.3066C25.7231 32.0392 27.8202 31.0214 29.4242 29.417L28.7171 28.7099ZM31.3178 23.344C31.0781 25.3741 30.162 27.2642 28.717 28.71L29.4243 29.4169C31.0281 27.8123 32.0449 25.7145 32.3109 23.4613L31.3178 23.344ZM30.0385 17.52C31.1069 19.2627 31.5576 21.3143 31.3178 23.344L32.3109 23.4613C32.577 21.2085 32.0768 18.9315 30.8911 16.9973L30.0385 17.52ZM25.4284 13.7382C27.3462 14.4454 28.9701 15.7774 30.0385 17.52L30.891 16.9973C29.7052 15.0632 27.9029 13.5849 25.7744 12.7999L25.4284 13.7382ZM23.6187 13.9751C24.147 13.6045 24.8233 13.5161 25.4292 13.7384L25.7737 12.7997C24.8604 12.4645 23.8408 12.5978 23.0445 13.1564L23.6187 13.9751ZM22.7797 15.5966C22.7771 14.9513 23.0905 14.3456 23.6187 13.9751L23.0445 13.1564C22.2482 13.715 21.7757 14.628 21.7797 15.6007L22.7797 15.5966ZM22.7797 15.7843V15.5986H21.7797V15.7843H22.7797ZM23.159 16.9167C22.9214 16.5816 22.7891 16.1831 22.7796 15.7726L21.7799 15.7959C21.7941 16.4059 21.9905 16.9978 22.3433 17.4952L23.159 16.9167ZM24.1134 17.6524C23.7291 17.5076 23.3966 17.2514 23.1589 16.9165L22.3434 17.4953C22.6966 17.9929 23.1904 18.3733 23.761 18.5882L24.1134 17.6524ZM26.4209 19.5159C25.8606 18.6773 25.0591 18.0288 24.1222 17.6558L23.7522 18.5848C24.5012 18.883 25.1417 19.4012 25.5893 20.0714L26.4209 19.5159ZM27.2596 22.3512C27.2735 21.3428 26.981 20.3542 26.4208 19.5159L25.5894 20.0714C26.0371 20.7415 26.2708 21.5315 26.2597 22.3374L27.2596 22.3512ZM25.7856 25.7864C26.6979 24.8744 27.2253 23.6469 27.2595 22.3575L26.2598 22.331C26.2324 23.3645 25.8097 24.3483 25.0786 25.0792L25.7856 25.7864ZM22.3569 27.2601C23.6462 27.2259 24.8737 26.6986 25.7857 25.7863L25.0785 25.0793C24.3477 25.8103 23.3639 26.233 22.3303 26.2605L22.3569 27.2601ZM22.8275 26.8861L22.8276 26.8857L21.8596 26.6349L21.8595 26.6353L22.8275 26.8861Z" fill="white" mask="url(#path-1-inside-1_310_238)"/>
</svg>
