<svg width="40" height="40" viewBox="0 0 40 40" fill="none" xmlns="http://www.w3.org/2000/svg">
<path d="M6.5598 39.8399C7.155 39.8399 7.74374 39.7568 8.3198 39.5968L11.2319 38.7647C11.635 38.6495 12.0384 38.592 12.4351 38.592C12.8511 38.592 13.2542 38.656 13.6382 38.7903C16.275 39.6991 19.1166 40.0255 21.9006 39.7568C31.4302 38.8481 39.1166 30.9696 39.795 21.4336C40.2815 14.592 37.3694 8.2496 31.8142 4.0448C28.5117 1.54229 24.3198 0.166453 20.0062 0.166453C19.5262 0.166453 19.0462 0.18562 18.5789 0.217703C9.04289 0.88981 1.17089 8.5825 0.25569 18.1057C-0.0130617 20.8832 0.30694 23.6417 1.19654 26.2913C1.4653 27.0848 1.49738 27.8848 1.28613 28.6082L0.447781 31.5521C-0.0578457 33.3186 0.153408 35.1873 1.03653 36.6786C2.18863 38.6369 4.30693 39.853 6.56613 39.853L6.5598 39.8399ZM4.07665 18.4704C4.8127 10.7904 11.1614 4.58875 18.8478 4.04475C19.2253 4.01913 19.6157 4.00642 20.0062 4.00642C23.4878 4.00642 26.8606 5.10727 29.4974 7.10391C33.9965 10.5152 36.3518 15.6351 35.9614 21.1647C35.4174 28.8511 29.2158 35.1999 21.5358 35.9359C21.0175 35.9872 20.5054 36.0063 19.9933 36.0063C18.246 36.0063 16.5308 35.7247 14.886 35.1551C13.4076 34.6494 11.7756 34.6176 10.182 35.0719L7.26993 35.9041C6.14993 36.2241 4.94678 35.7376 4.34513 34.7201C3.9995 34.1376 3.92909 33.3633 4.14034 32.6018L4.97869 29.6578C5.40119 28.1857 5.34993 26.5922 4.83785 25.0626C4.121 22.9251 3.86516 20.7105 4.0762 18.4706L4.07665 18.4704Z" fill="#1B1B1B"/>
<path d="M25.1198 12.9599H14.8798C13.8238 12.9599 12.9598 13.8239 12.9598 14.8799C12.9598 15.936 13.8238 16.7999 14.8798 16.7999H25.1198C26.1759 16.7999 27.0398 15.936 27.0398 14.8799C27.0398 13.8239 26.1759 12.9599 25.1198 12.9599Z" fill="#1B1B1B"/>
<path d="M25.1198 23.2004H14.8798C13.8238 23.2004 12.9598 24.0643 12.9598 25.1204C12.9598 26.1764 13.8238 27.0404 14.8798 27.0404H25.1198C26.1759 27.0404 27.0398 26.1764 27.0398 25.1204C27.0398 24.0643 26.1759 23.2004 25.1198 23.2004Z" fill="#1B1B1B"/>
</svg>
