<svg width="88" height="88" viewBox="0 0 88 88" fill="none" xmlns="http://www.w3.org/2000/svg">
<path d="M44 77C48.3336 77 52.6248 76.1464 56.6286 74.488C60.6323 72.8296 64.2702 70.3989 67.3345 67.3345C70.3989 64.2702 72.8296 60.6323 74.488 56.6286C76.1464 52.6248 77 48.3336 77 44C77 39.6664 76.1464 35.3752 74.488 31.3714C72.8296 27.3677 70.3989 23.7298 67.3345 20.6655C64.2702 17.6011 60.6323 15.1704 56.6286 13.512C52.6248 11.8536 48.3336 11 44 11C35.2479 11 26.8542 14.4768 20.6655 20.6655C14.4768 26.8542 11 35.2479 11 44C11 52.7521 14.4768 61.1458 20.6655 67.3345C26.8542 73.5232 35.2479 77 44 77V77Z" stroke="#1B1B1B" stroke-width="4" stroke-linecap="round" stroke-linejoin="round"/>
<path d="M17.0463 63.041L20.955 60.6797C21.3732 60.427 21.7051 60.0535 21.9067 59.6083C22.1083 59.1632 22.1703 58.6674 22.0843 58.1863L19.8623 45.8993C19.7652 45.3603 19.8544 44.8043 20.1153 44.3227L23.7893 37.5283C23.9415 37.2459 24.1484 36.9966 24.398 36.795L30.019 32.2667C30.3918 31.967 30.8452 31.7848 31.3217 31.743C31.7982 31.7012 32.2763 31.8018 32.6956 32.032L35.1706 33.3887C35.684 33.671 36.0763 34.1293 36.2743 34.6757L36.751 35.9627C36.9099 36.394 37.1886 36.7711 37.5544 37.0496C37.9202 37.3281 38.3578 37.4965 38.8159 37.535C39.274 37.5735 39.7336 37.4805 40.1407 37.2669C40.5478 37.0534 40.8856 36.7281 41.1143 36.3293L42.7386 33.4693C42.9014 33.184 43.1207 32.9348 43.383 32.7371C43.6454 32.5393 43.9453 32.3971 44.2645 32.3192C44.5836 32.2413 44.9153 32.2293 45.2393 32.284C45.5633 32.3386 45.8727 32.4587 46.1486 32.637L51.0986 35.8343C51.5081 36.0993 51.9882 36.2341 52.4758 36.221C52.9633 36.208 53.4355 36.0477 53.8303 35.7613C54.225 35.4748 54.5238 35.0756 54.6874 34.6162C54.8511 34.1567 54.8718 33.6585 54.747 33.187C54.6024 32.6429 54.6527 32.0654 54.8891 31.5545C55.1255 31.0436 55.533 30.6314 56.0413 30.3893L62.8686 27.1297C63.3479 26.9007 63.7384 26.5201 63.9797 26.0469C64.2209 25.5736 64.2995 25.0341 64.2033 24.5117L62.7953 16.8777" stroke="#1B1B1B" stroke-width="4" stroke-linecap="round" stroke-linejoin="round"/>
<path d="M65.8057 68.7683L60.7971 63.7523C60.573 63.5273 60.3067 63.3486 60.0135 63.2266C59.7203 63.1045 59.406 63.0415 59.0884 63.041H55.1577C54.8108 63.0415 54.4679 62.9673 54.1523 62.8233C53.8367 62.6792 53.5558 62.4688 53.3289 62.2064C53.102 61.944 52.9344 61.6358 52.8374 61.3027C52.7404 60.9696 52.7164 60.6195 52.7671 60.2763L53.5847 54.7177C53.6402 54.34 53.7844 53.9809 54.0056 53.6699C54.2267 53.3588 54.5186 53.1047 54.8571 52.9283L63.0594 48.6493C63.494 48.422 63.9875 48.3325 64.4742 48.3928C64.9609 48.453 65.4177 48.6602 65.7837 48.9867L74.4591 56.716" stroke="#1B1B1B" stroke-width="4" stroke-linecap="round" stroke-linejoin="round"/>
</svg>
