<svg width="40" height="40" viewBox="0 0 40 40" fill="none" xmlns="http://www.w3.org/2000/svg">
<path d="M20 15.5192C15.7632 15.5192 12.32 18.9624 12.32 23.1992C12.32 27.4361 15.7632 30.8792 20 30.8792C24.2369 30.8792 27.68 27.4361 27.68 23.1992C27.68 18.9624 24.2369 15.5192 20 15.5192ZM20 27.0392C17.8817 27.0392 16.16 25.3176 16.16 23.1992C16.16 21.0809 17.8817 19.3592 20 19.3592C22.1184 19.3592 23.84 21.0809 23.84 23.1992C23.84 25.3176 22.1184 27.0392 20 27.0392Z" fill="#1B1B1B"/>
<path d="M39.84 23.1992C39.84 21.4009 39.36 19.628 38.4575 18.0857C37.4848 16.4217 35.8143 13.9705 33.3949 11.7881L32.9724 11.4041L35.6412 7.66661C35.942 7.25057 36.0572 6.73872 35.9739 6.23306C35.8908 5.72744 35.6156 5.28576 35.1995 4.98517C34.3356 4.37077 33.1386 4.56913 32.5178 5.43308L29.8491 9.16434L29.3499 8.89559C27.2187 7.73079 24.9083 6.99473 22.4827 6.70039L21.9196 6.62997V2.06682C21.9196 1.01077 21.0556 0.146823 19.9996 0.146823C18.9435 0.146823 18.0796 1.01077 18.0796 2.06682V6.62997L17.5164 6.70039C15.0908 6.99476 12.7804 7.73079 10.6492 8.89559L10.1501 9.16434L7.48132 5.43308C7.11007 4.90829 6.51487 4.63308 5.91343 4.63308C5.52947 4.63308 5.13903 4.74829 4.79988 4.99142C4.38384 5.29225 4.10863 5.73393 4.02548 6.23931C3.94236 6.74494 4.05756 7.25057 4.35819 7.67286L7.02694 11.4104L6.60444 11.7943C4.19174 13.9768 2.52129 16.4216 1.54193 18.0855C0.639424 19.628 0.159424 21.3943 0.159424 23.1991C0.159424 25.0039 0.639424 26.7703 1.54193 28.3126C4.06358 32.6199 9.81073 39.839 19.9995 39.839C30.1883 39.839 35.9355 32.6198 38.4571 28.3126C39.3596 26.7701 39.8396 25.0039 39.8396 23.1991L39.84 23.1992ZM35.1425 26.3736C33.0369 29.9705 28.2753 35.9992 20.0001 35.9992C11.7249 35.9992 6.96326 29.964 4.85766 26.3736C4.30081 25.4201 4.00017 24.3192 4.00017 23.1992C4.00017 22.0792 4.29454 20.9848 4.85766 20.0248C6.96326 16.428 11.7249 10.3992 20.0001 10.3992C28.2753 10.3992 33.0369 16.4344 35.1425 20.0248C35.6993 20.9784 36 22.0792 36 23.1992C36 24.3192 35.7056 25.4136 35.1425 26.3736Z" fill="#1B1B1B"/>
</svg>
