<svg width="24" height="24" viewBox="0 0 24 24" fill="none" xmlns="http://www.w3.org/2000/svg">
<path d="M16 3L16.7071 2.29289C16.5196 2.10536 16.2652 2 16 2V3ZM20 7H21C21 6.73478 20.8946 6.48043 20.7071 6.29289L20 7ZM4 21H3C3 21.5523 3.44772 22 4 22V21ZM4 3V2C3.44772 2 3 2.44772 3 3H4ZM20 21V22C20.5523 22 21 21.5523 21 21H20ZM15.2929 3.70711L19.2929 7.70711L20.7071 6.29289L16.7071 2.29289L15.2929 3.70711ZM5 21V3H3V21H5ZM4 4H16V2H4V4ZM20 20H4V22H20V20ZM19 7V21H21V7H19Z" fill="white"/>
<path d="M12 8V12" stroke="white" stroke-width="2" stroke-linecap="round" stroke-linejoin="round"/>
<path d="M12 16H12.01" stroke="white" stroke-width="2" stroke-linecap="round" stroke-linejoin="round"/>
</svg>
