<svg width="23" height="24" viewBox="0 0 23 24" fill="none" xmlns="http://www.w3.org/2000/svg">
<path fill-rule="evenodd" clip-rule="evenodd" d="M22.54 12.2823C22.54 11.4668 22.4668 10.6828 22.3309 9.93002H11.5V14.3784H17.6891C17.4225 15.8159 16.6123 17.0339 15.3943 17.8493V20.7348H19.1109C21.2855 18.7328 22.54 15.7846 22.54 12.2823Z" fill="#4285F4"/>
<path fill-rule="evenodd" clip-rule="evenodd" d="M11.4999 23.5208C14.6049 23.5208 17.2081 22.491 19.1108 20.7346L15.3942 17.8492C14.3644 18.5392 13.0472 18.9469 11.4999 18.9469C8.50467 18.9469 5.96945 16.924 5.06513 14.2058H1.22308V17.1853C3.11536 20.9437 7.00445 23.5208 11.4999 23.5208Z" fill="#34A853"/>
<path fill-rule="evenodd" clip-rule="evenodd" d="M5.06523 14.206C4.83523 13.516 4.70455 12.7789 4.70455 12.021C4.70455 11.263 4.83523 10.526 5.06523 9.83599V6.85645H1.22318C0.444318 8.40895 0 10.1653 0 12.021C0 13.8767 0.444318 15.633 1.22318 17.1855L5.06523 14.206Z" fill="#FBBC05"/>
<path fill-rule="evenodd" clip-rule="evenodd" d="M11.4999 5.0948C13.1883 5.0948 14.7042 5.67503 15.896 6.81457L19.1944 3.51616C17.2029 1.66048 14.5997 0.520935 11.4999 0.520935C7.00445 0.520935 3.11536 3.09798 1.22308 6.85639L5.06513 9.83593C5.96945 7.11775 8.50468 5.0948 11.4999 5.0948Z" fill="#EA4335"/>
</svg>
