<svg width="88" height="88" viewBox="0 0 88 88" fill="none" xmlns="http://www.w3.org/2000/svg">
<path d="M33 33.6656C34.2475 33.6656 35.4827 33.4199 36.6353 32.9425C37.7878 32.4651 38.835 31.7654 39.7171 30.8833C40.5992 30.0012 41.299 28.954 41.7764 27.8014C42.2538 26.6489 42.4995 25.4136 42.4995 24.1662C42.4995 22.9187 42.2538 21.6834 41.7764 20.5309C41.299 19.3783 40.5992 18.3311 39.7171 17.449C38.835 16.5669 37.7878 15.8672 36.6353 15.3898C35.4827 14.9124 34.2475 14.6667 33 14.6667C30.4806 14.6667 28.0643 15.6675 26.2828 17.449C24.5013 19.2305 23.5005 21.6467 23.5005 24.1662C23.5005 26.6856 24.5013 29.1018 26.2828 30.8833C28.0643 32.6648 30.4806 33.6656 33 33.6656V33.6656Z" stroke="#1B1B1B" stroke-width="4" stroke-linecap="round" stroke-linejoin="round"/>
<path d="M41.1125 51.4899L51.9451 59.9697C52.2918 60.3185 52.704 60.5953 53.158 60.7842C53.6121 60.9731 54.099 61.0703 54.5907 61.0703C55.0825 61.0703 55.5694 60.9731 56.0234 60.7842C56.4774 60.5953 56.8897 60.3185 57.2363 59.9697C57.9398 59.262 58.3346 58.3046 58.3346 57.3067C58.3346 56.3088 57.9398 55.3514 57.2363 54.6437L44.8902 38.6687C44.3129 38.087 43.6263 37.6252 42.8698 37.31C42.1133 36.9948 41.3019 36.8324 40.4824 36.8321H25.5175C24.6978 36.8307 23.8859 36.9923 23.1291 37.3076C22.3724 37.6229 21.686 38.0856 21.1098 38.6687L8.76361 54.6437C8.23821 55.1711 7.88082 55.8424 7.73655 56.5728C7.59228 57.3031 7.6676 58.0599 7.95299 58.7475C8.33246 59.6683 9.06107 60.4015 9.97955 60.7867C10.6629 61.0719 11.4159 61.1465 12.142 61.001C12.8681 60.8554 13.5342 60.4963 14.0548 59.9697L24.8842 51.4899L16.2397 78.975C15.8232 79.8796 15.7797 80.9118 16.1187 81.8482C16.4577 82.7846 17.1519 83.5498 18.0509 83.9781C18.4964 84.1881 18.9791 84.3076 19.4711 84.3296C19.9631 84.3516 20.4546 84.2758 20.917 84.1064C21.3795 83.937 21.8037 83.6775 22.1651 83.343C22.5265 83.0084 22.8179 82.6054 23.0223 82.1574L33 66.3502L42.9776 82.1574C43.1823 82.6047 43.4738 83.007 43.8352 83.3409C44.1965 83.6748 44.6206 83.9336 45.0827 84.1024C45.5448 84.2711 46.0359 84.3465 46.5274 84.3241C47.0188 84.3017 47.501 84.1819 47.9458 83.9718C48.8439 83.544 49.5376 82.7802 49.8771 81.8452C50.2165 80.9103 50.1746 79.8793 49.7602 78.975L41.1157 51.4899H41.1125Z" stroke="#1B1B1B" stroke-width="4" stroke-linecap="round" stroke-linejoin="round"/>
</svg>
