<svg xmlns="http://www.w3.org/2000/svg" width="375" height="322" viewBox="0 0 375 322" fill="none">
<g opacity="0.2">
<path d="M205.634 151.093L205.397 150.683C181.842 109.884 193.302 58.7099 237.378 33.2623C264.444 17.6357 285.848 17.3076 306.745 22.7358L300.029 57.5004C283.161 53.8456 268.335 54.2062 253.984 62.4918C229.79 76.4601 223.963 106.611 238.168 131.215L238.405 131.626C252.61 156.23 281.467 166.904 306.066 152.702C322.464 143.234 328.722 130.875 334.078 114.111L365.893 122.807C360.24 147.118 349.525 166.427 321.846 182.408C279.613 206.791 229.426 192.303 205.634 151.093Z" fill="white"/>
<path d="M120.103 200.467L119.866 200.057C96.3138 159.263 107.768 108.092 151.85 82.6416C178.916 67.015 200.32 66.6868 221.217 72.1151L214.502 106.88C197.633 103.225 182.807 103.585 168.456 111.871C144.262 125.839 138.435 155.991 152.64 180.595L152.877 181.005C167.082 205.609 195.939 216.283 220.538 202.081C236.936 192.614 243.194 180.254 248.55 163.491L280.365 172.187C274.712 196.497 263.997 215.807 236.318 231.787C194.085 256.17 143.898 241.682 120.106 200.473L120.103 200.467Z" stroke="white" stroke-width="1.9782" stroke-miterlimit="10" stroke-dasharray="2.35 2.35"/>
<path d="M37.666 248.145L37.4291 247.735C13.8738 206.936 25.3335 155.761 69.41 130.314C96.476 114.687 117.88 114.359 138.777 119.787L132.061 154.552C115.193 150.897 100.367 151.258 86.0155 159.543C61.8217 173.512 55.995 203.663 70.2002 228.267L70.4371 228.677C84.6423 253.281 113.499 263.955 138.098 249.753C154.496 240.286 160.753 227.926 166.11 211.163L197.925 219.859C192.272 244.169 181.557 263.479 153.878 279.459C111.645 303.842 61.4582 289.354 37.666 248.145Z" stroke="white" stroke-width="1.9782" stroke-miterlimit="10"/>
</g>
</svg>