<svg width="124" height="32" viewBox="0 0 124 32" fill="none" xmlns="http://www.w3.org/2000/svg">
<path d="M21.946 21.3822C20.5592 24.3597 17.5701 26.3041 14.2222 26.3041C9.52065 26.3041 5.69588 22.4793 5.69588 17.7778C5.69588 13.0763 9.52065 9.2513 14.2222 9.2513C16.1983 9.2513 18.1241 9.94234 19.6446 11.1973L23.2703 6.80408C20.7317 4.70908 17.5185 3.55542 14.2222 3.55542C6.38011 3.55542 0 9.93553 0 17.7778C0 25.62 6.38011 32 14.2222 32C20.3553 32 25.778 28.0933 27.7168 22.2789C27.8154 21.9828 27.9017 21.6834 27.9805 21.3822H21.946Z" fill="#959595"/>
<path d="M31.0898 5.95587C31.6298 5.45797 31.9854 4.74258 31.9916 3.72593C31.979 1.57687 30.4091 0 27.8637 0C25.7992 0 24.3738 0.81918 23.391 1.98254L25.1274 3.6372C25.9139 2.7524 26.7331 2.2611 27.8963 2.2611C28.8465 2.2611 29.5183 2.71671 29.5183 3.56849V3.68631C29.5183 4.62001 28.6831 5.05952 27.2737 5.05952H26.2251V6.85903H26.2321V6.88091H27.2808C28.6899 6.88091 29.5254 7.36272 29.5254 8.29642V8.37194C29.5254 9.22372 28.8535 9.72183 27.9033 9.72183C26.7403 9.72183 25.921 9.23053 25.1344 8.34573L23.5901 10.2171C24.5638 11.2642 25.9368 11.9829 27.8705 11.9829C30.4262 11.9829 31.999 10.436 31.999 8.27372V8.1982C31.999 7.16298 31.6383 6.44821 31.0896 5.95608L31.0898 5.95587Z" fill="#959595"/>
<path d="M31.9916 3.7002C31.9916 3.70907 31.991 3.71753 31.991 3.72619C31.991 3.73486 31.9916 3.74332 31.9916 3.75199V3.7002Z" fill="#959595"/>
<path d="M42.5131 8.17791V8.15974C42.5131 6.38174 43.8443 4.92493 45.7292 4.92493C46.8904 4.92493 47.5879 5.32734 48.1864 5.89916L47.481 6.71201C46.9711 6.24707 46.4442 5.94352 45.7206 5.94352C44.5412 5.94352 43.6658 6.91723 43.6658 8.14157V8.1592C43.6658 9.38355 44.5326 10.3754 45.7297 10.3754C46.4982 10.3754 46.9893 10.0713 47.5259 9.57113L48.2318 10.2862C47.5793 10.9654 46.8643 11.394 45.6939 11.394C43.8625 11.394 42.5131 9.973 42.5131 8.17737V8.17791Z" fill="#959595"/>
<path d="M49.4402 5.0321H52.2283C53.0144 5.0321 53.6306 5.26458 54.033 5.65737C54.3633 5.99673 54.5508 6.46167 54.5508 7.00677V7.02494C54.5508 8.05262 53.9347 8.66879 53.0678 8.9189L54.7561 11.2869H53.4521L51.9146 9.10648H50.539V11.2869H49.4397V5.0321H49.4402ZM52.1481 8.13278C52.9342 8.13278 53.4344 7.72181 53.4344 7.08746V7.06983C53.4344 6.39967 52.9519 6.03306 52.139 6.03306H50.5395V8.13278H52.1481Z" fill="#959595"/>
<path d="M55.948 5.0321H60.5856V6.01489H57.0473V7.64112H60.1838V8.63299H57.0473V10.3041H60.6305V11.2869H55.948V5.0321Z" fill="#959595"/>
<path d="M64.1977 4.98804H65.2158L67.968 11.2872H66.8068L66.1724 9.77692H63.215L62.5721 11.2872H61.446L64.1983 4.98804H64.1977ZM65.77 8.80322L64.6889 6.30109L63.6168 8.80322H65.77Z" fill="#959595"/>
<path d="M69.8203 6.0507H67.828V5.0321H72.9119V6.0507H70.9191V11.2869H69.8198V6.0507H69.8203Z" fill="#959595"/>
<path d="M74.1659 5.0321H75.2652V11.2869H74.1659V5.0321Z" fill="#959595"/>
<path d="M76.4458 5.0321H77.661L79.5459 9.83916L81.4222 5.0321H82.6102L80.0189 11.3312H79.0361L76.4447 5.0321H76.4458Z" fill="#959595"/>
<path d="M83.7303 5.0321H88.368V6.01489H84.8296V7.64112H87.9661V8.63299H84.8296V10.3041H88.4129V11.2869H83.7303V5.0321Z" fill="#959595"/>
<path d="M42.5131 16.0184V16.0002C42.5131 14.2222 43.8443 12.7654 45.7292 12.7654C46.8904 12.7654 47.5879 13.1678 48.1864 13.7396L47.481 14.5525C46.9711 14.0875 46.4442 13.784 45.7206 13.784C44.5412 13.784 43.6658 14.7577 43.6658 15.982V15.9997C43.6658 17.224 44.5326 18.2159 45.7297 18.2159C46.4982 18.2159 46.9893 17.9118 47.5259 17.4116L48.2318 18.1266C47.5793 18.8059 46.8643 19.2345 45.6939 19.2345C43.8625 19.2345 42.5131 17.8135 42.5131 16.0178V16.0184Z" fill="#959595"/>
<path d="M48.985 16.0184V16.0002C48.985 14.2398 50.3429 12.7654 52.2642 12.7654C54.1854 12.7654 55.5257 14.2222 55.5257 15.982V15.9997C55.5257 17.76 54.1677 19.2345 52.2465 19.2345C50.3253 19.2345 48.985 17.7782 48.985 16.0178V16.0184ZM54.373 16.0184V16.0002C54.373 14.7849 53.4885 13.7845 52.2465 13.7845C51.0045 13.7845 50.1377 14.7673 50.1377 15.9826V16.0002C50.1377 17.2154 51.0222 18.2164 52.2642 18.2164C53.5061 18.2164 54.373 17.2336 54.373 16.0184Z" fill="#959595"/>
<path d="M56.9047 12.8732H58.004V18.127H61.2917V19.1279H56.9047V12.8732Z" fill="#959595"/>
<path d="M62.4735 12.8732H63.5728V18.127H66.8605V19.1279H62.4735V12.8732Z" fill="#959595"/>
<path d="M70.259 12.8285H71.2771L74.0293 19.1276H72.868L72.2337 17.6174H69.2762L68.6333 19.1276H67.5073L70.2596 12.8285H70.259ZM71.8313 16.6437L70.7501 14.1416L69.6781 16.6437H71.8313Z" fill="#959595"/>
<path d="M75.1494 12.8731H77.9556C78.6701 12.8731 79.2334 13.0698 79.5909 13.4267C79.8678 13.7036 80.0104 14.0525 80.0104 14.4635V14.4811C80.0104 15.232 79.5818 15.6339 79.1169 15.8754C79.8496 16.1255 80.3589 16.5456 80.3589 17.3942V17.4119C80.3589 18.5288 79.4386 19.1273 78.0449 19.1273H75.1494V12.8726V12.8731ZM78.9117 14.642C78.9117 14.1509 78.5184 13.8468 77.8124 13.8468H76.2311V15.5088H77.7322C78.4377 15.5088 78.9117 15.232 78.9117 14.6602V14.6425V14.642ZM77.9733 16.4382H76.2311V18.1536H78.054C78.7957 18.1536 79.2607 17.8586 79.2607 17.2959V17.2777C79.2607 16.7508 78.8406 16.4382 77.9738 16.4382H77.9733Z" fill="#959595"/>
<path d="M81.3623 16.0184V16.0002C81.3623 14.2398 82.7203 12.7654 84.6415 12.7654C86.5627 12.7654 87.903 14.2222 87.903 15.982V15.9997C87.903 17.76 86.5451 19.2345 84.6238 19.2345C82.7026 19.2345 81.3623 17.7782 81.3623 16.0178V16.0184ZM86.7503 16.0184V16.0002C86.7503 14.7849 85.8658 13.7845 84.6238 13.7845C83.3819 13.7845 82.515 14.7673 82.515 15.9826V16.0002C82.515 17.2154 83.3995 18.2164 84.6415 18.2164C85.8834 18.2164 86.7503 17.2336 86.7503 16.0184Z" fill="#959595"/>
<path d="M89.2813 12.8732H92.0693C92.8555 12.8732 93.4716 13.1056 93.8741 13.4984C94.2043 13.8378 94.3919 14.3027 94.3919 14.8478V14.866C94.3919 15.8937 93.7757 16.5099 92.9089 16.76L94.5971 19.1279H93.2931L91.7556 16.9475H90.3801V19.1279H89.2808V12.8732H89.2813ZM91.9892 15.9738C92.7753 15.9738 93.2755 15.5629 93.2755 14.9285V14.9109C93.2755 14.2407 92.7929 13.8741 91.9801 13.8741H90.3806V15.9738H91.9892Z" fill="#959595"/>
<path d="M98.0056 12.8285H99.0237L101.776 19.1276H100.615L99.9803 17.6174H97.0228L96.3799 19.1276H95.2539L98.0061 12.8285H98.0056ZM99.5778 16.6437L98.4967 14.1416L97.4247 16.6437H99.5778Z" fill="#959595"/>
<path d="M103.628 13.8918H101.636V12.8732H106.72V13.8918H104.727V19.1279H103.628V13.8918H103.628Z" fill="#959595"/>
<path d="M107.973 12.8732H109.072V19.1279H107.973V12.8732Z" fill="#959595"/>
<path d="M110.512 16.0184V16.0002C110.512 14.2398 111.87 12.7654 113.791 12.7654C115.712 12.7654 117.053 14.2222 117.053 15.982V15.9997C117.053 17.76 115.695 19.2345 113.774 19.2345C111.852 19.2345 110.512 17.7782 110.512 16.0178V16.0184ZM115.9 16.0184V16.0002C115.9 14.7849 115.016 13.7845 113.774 13.7845C112.532 13.7845 111.665 14.7673 111.665 15.9826V16.0002C111.665 17.2154 112.549 18.2164 113.791 18.2164C115.033 18.2164 115.9 17.2336 115.9 16.0184Z" fill="#959595"/>
<path d="M118.432 12.8732H119.45L122.801 17.1982V12.8732H123.883V19.1279H122.962L119.513 14.6784V19.1279H118.432V12.8732Z" fill="#959595"/>
<path d="M42.5131 23.8583V23.8401C42.5131 22.0621 43.8443 20.6058 45.7292 20.6058C46.8904 20.6058 47.5879 21.0077 48.1864 21.5795L47.481 22.3924C46.9711 21.9274 46.4442 21.6239 45.7206 21.6239C44.5412 21.6239 43.6658 22.5976 43.6658 23.8219V23.8396C43.6658 25.0639 44.5326 26.0558 45.7297 26.0558C46.4982 26.0558 46.9893 25.7522 47.5259 25.2515L48.2318 25.9665C47.5793 26.6458 46.8643 27.0744 45.6939 27.0744C43.8625 27.0744 42.5131 25.6534 42.5131 23.8577V23.8583Z" fill="#959595"/>
<path d="M48.985 23.8583V23.8401C48.985 22.0798 50.3429 20.6058 52.2642 20.6058C54.1854 20.6058 55.5257 22.0621 55.5257 23.8225V23.8401C55.5257 25.6005 54.1677 27.0749 52.2465 27.0749C50.3253 27.0749 48.985 25.6186 48.985 23.8583ZM54.373 23.8583V23.8401C54.373 22.6249 53.4885 21.6244 52.2465 21.6244C51.0045 21.6244 50.1377 22.6072 50.1377 23.8225V23.8401C50.1377 25.0554 51.0222 26.0563 52.2642 26.0563C53.5061 26.0563 54.373 25.0735 54.373 23.8583Z" fill="#959595"/>
<path d="M56.9047 20.713H58.0756L59.9786 23.6705L61.8817 20.713H63.052V26.9678H61.9527V22.4825L59.9786 25.4314H59.9428L57.9863 22.5006V26.9683H56.9047V20.7135V20.713Z" fill="#959595"/>
<path d="M64.7075 20.713H65.8784L67.7815 23.6705L69.6845 20.713H70.8549V26.9678H69.7556V22.4825L67.7815 25.4314H67.7457L65.7892 22.5006V26.9683H64.7075V20.7135V20.713Z" fill="#959595"/>
<path d="M72.4135 24.3139V20.713H73.5127V24.269C73.5127 25.4308 74.1113 26.0475 75.0946 26.0475C76.0779 26.0475 76.6669 25.4666 76.6669 24.3139V20.713H77.7661V24.2605C77.7661 26.1277 76.7112 27.0661 75.0764 27.0661C73.4417 27.0661 72.4135 26.1277 72.4135 24.3139Z" fill="#959595"/>
<path d="M79.3235 20.713H80.3421L83.6929 25.0375V20.713H84.7745V26.9678H83.8542L80.4051 22.5183V26.9678H79.3235V20.713Z" fill="#959595"/>
<path d="M86.4924 20.713H87.5917V26.9678H86.4924V20.713Z" fill="#959595"/>
<path d="M90.8367 21.7316H88.8444V20.713H93.9282V21.7316H91.9354V26.9678H90.8361V21.7316H90.8367Z" fill="#959595"/>
<path d="M96.9598 24.5015L94.4758 20.713H95.7798L97.5225 23.4738L99.2914 20.713H100.551L98.0671 24.4748V26.9678H96.9593V24.5015H96.9598Z" fill="#959595"/>
</svg>
