<svg xmlns="http://www.w3.org/2000/svg" width="46" height="46" viewBox="0 0 46 46" fill="none" shapeRendering="geometricPrecision" >
<path d="M31.547 30.7365C29.5532 35.0164 25.2569 37.8115 20.4444 37.8115C13.6859 37.8115 8.18776 32.3133 8.18776 25.5548C8.18776 18.7963 13.6859 13.2981 20.4444 13.2981C23.2851 13.2981 26.0531 14.2918 28.2394 16.0953L33.451 9.78021C29.802 6.76843 25.1827 5.11035 20.4444 5.11035C9.17148 5.11106 0 14.2826 0 25.5555C0 36.8285 9.17148 46 20.4444 46C29.2609 46 37.0559 40.3841 39.8424 32.026C39.9843 31.6005 40.1083 31.1699 40.2217 30.7372H31.547V30.7365Z" fill="#1B1B1B"/>
<path d="M44.6919 8.562C45.4682 7.8463 45.9793 6.81767 45.9879 5.35633C45.9701 2.26685 43.7132 0 40.0542 0C37.0866 0 35.0379 1.17762 33.625 2.84996L36.1214 5.22873C37.252 3.95701 38.4296 3.25058 40.1012 3.25058C41.467 3.25058 42.4329 3.90569 42.4329 5.13036V5.30002C42.4329 6.64231 41.2318 7.27389 39.2066 7.27389H37.6996V9.86081H37.7096V9.89217H39.2166C41.2425 9.89217 42.4429 10.5851 42.4429 11.9274V12.0357C42.4429 13.2604 41.477 13.9761 40.1112 13.9761C38.4396 13.9761 37.2619 13.2696 36.1314 11.9979L33.9116 14.6882C35.3116 16.1937 37.2848 17.2267 40.0649 17.2267C43.7389 17.2267 45.9993 15.0033 45.9993 11.8946V11.7862C45.9993 10.2985 45.4811 9.27057 44.6919 8.56343V8.562Z" fill="#1B1B1B"/>
<path d="M45.9885 5.31921C45.9885 5.33213 45.9878 5.34433 45.9878 5.35724C45.9878 5.37016 45.9885 5.38236 45.9885 5.39455V5.31921Z" fill="#1B1B1B"/>
</svg>