<svg width="166" height="127" viewBox="0 0 166 127" fill="none" xmlns="http://www.w3.org/2000/svg">
<g clip-path="url(#clip0_462_41285)">
<path d="M31.2761 41.004C29.2719 45.3233 24.9533 48.1442 20.1159 48.1442C13.3224 48.1442 7.79566 42.5953 7.79566 35.7746C7.79566 28.9538 13.3224 23.405 20.1159 23.405C22.9714 23.405 25.7537 24.4078 27.9513 26.2279L33.19 19.8547C29.522 16.8151 24.8788 15.1418 20.1159 15.1418C8.78449 15.1425 -0.43457 24.3985 -0.43457 35.7753C-0.43457 47.1521 8.78449 56.4081 20.1159 56.4081C28.9782 56.4081 36.8136 50.7405 39.6145 42.3054C39.7571 41.8759 39.8818 41.4414 39.9957 41.0047H31.2761V41.004Z" fill="#1B1B1B"/>
<path d="M44.4895 18.6252C45.2698 17.9029 45.7835 16.8648 45.7921 15.39C45.7742 12.272 43.5057 9.98428 39.8276 9.98428C36.8447 9.98428 34.7853 11.1728 33.3651 12.8605L35.8745 15.2612C37.0109 13.9777 38.1946 13.2648 39.8749 13.2648C41.2478 13.2648 42.2187 13.926 42.2187 15.1619V15.3331C42.2187 16.6878 41.0114 17.3252 38.9757 17.3252H37.4609V19.9359H37.4709V19.9676H38.9857C41.0221 19.9676 42.2288 20.6669 42.2288 22.0215V22.1309C42.2288 23.3668 41.2579 24.0891 39.885 24.0891C38.2047 24.0891 37.0209 23.3762 35.8845 22.0927L33.6532 24.8078C35.0605 26.3272 37.0438 27.3696 39.8384 27.3696C43.5314 27.3696 45.8036 25.1258 45.8036 21.9884V21.8791C45.8036 20.3777 45.2827 19.3403 44.4895 18.6266V18.6252Z" fill="#1B1B1B"/>
<path d="M45.7929 15.3525C45.7929 15.3655 45.7922 15.3777 45.7922 15.3907C45.7922 15.4036 45.7929 15.4158 45.7929 15.4281V15.3525Z" fill="#1B1B1B"/>
<path d="M-0.43457 76.9929V76.9553C-0.43457 73.3044 2.2882 70.314 6.14276 70.314C8.51868 70.314 9.94359 71.1397 11.1682 72.3136L9.72537 73.9829C8.68316 73.0281 7.60512 72.4051 6.12485 72.4051C3.71311 72.4051 1.92343 74.4047 1.92343 76.9177V76.9537C1.92343 79.4666 3.69519 81.5038 6.14439 81.5038C7.71585 81.5038 8.72061 80.8792 9.81656 79.8525L11.261 81.3207C9.9273 82.7153 8.46494 83.5949 6.07111 83.5949C2.32566 83.5949 -0.43295 80.6781 -0.43295 76.9913L-0.43457 76.9929Z" fill="#1B1B1B"/>
<path d="M13.731 70.5363H19.4323C21.0395 70.5363 22.3 71.0137 23.124 71.8198C23.7998 72.5163 24.1841 73.4711 24.1841 74.5894V74.627C24.1841 76.7362 22.9237 78.0016 21.1519 78.5167L24.6042 83.3791H21.9368L18.7923 78.9025H15.9783V83.3791H13.731V70.538V70.5363ZM19.2678 76.9029C20.8751 76.9029 21.8977 76.0593 21.8977 74.7562V74.7202C21.8977 73.3436 20.9109 72.5915 19.2482 72.5915H15.9767V76.9029H19.2661H19.2678Z" fill="#1B1B1B"/>
<path d="M27.0377 70.5363H36.5218V72.5538H29.2866V75.8925H35.7011V77.928H29.2866V81.3582H36.6146V83.3757H27.0393V70.5346L27.0377 70.5363Z" fill="#1B1B1B"/>
<path d="M43.9099 70.443H45.9927L51.6206 83.3757H49.2447L47.9468 80.2758H41.8987L40.5846 83.3757H38.2819L43.9099 70.443ZM47.1261 78.2762L44.9163 73.1391L42.7243 78.2762H47.1277H47.1261Z" fill="#1B1B1B"/>
<path d="M55.4083 72.6275H51.3339V70.5363H61.73V72.6275H57.6556V83.3774H55.4083V72.6275Z" fill="#1B1B1B"/>
<path d="M64.2944 70.5363H66.5417V83.3774H64.2944V70.5363Z" fill="#1B1B1B"/>
<path d="M68.9565 70.5363H71.4416L75.2961 80.4067L79.1344 70.5363H81.5641L76.2651 83.469H74.2556L68.9565 70.5363Z" fill="#1B1B1B"/>
<path d="M83.8536 70.5363H93.3377V72.5538H86.1025V75.8925H92.517V77.928H86.1025V81.3582H93.4305V83.3757H83.8552V70.5346L83.8536 70.5363Z" fill="#1B1B1B"/>
<path d="M-0.43457 92.6641V92.6265C-0.43457 88.9756 2.2882 85.9853 6.14276 85.9853C8.51868 85.9853 9.94359 86.8109 11.1682 87.9848L9.72537 89.6541C8.68316 88.6993 7.60512 88.0764 6.12485 88.0764C3.71311 88.0764 1.92343 90.076 1.92343 92.5889V92.6249C1.92343 95.1379 3.69519 97.175 6.14439 97.175C7.71585 97.175 8.72061 96.5505 9.81656 95.5237L11.261 96.9919C9.9273 98.3866 8.46494 99.2662 6.07111 99.2662C2.32566 99.2662 -0.43295 96.3494 -0.43295 92.6625L-0.43457 92.6641Z" fill="#1B1B1B"/>
<path d="M12.8005 92.6641V92.6265C12.8005 89.0132 15.577 85.9853 19.5065 85.9853C23.4359 85.9853 26.175 88.9756 26.175 92.5906V92.6265C26.175 96.2398 23.3985 99.2678 19.469 99.2678C15.5395 99.2678 12.8005 96.2774 12.8005 92.6641ZM23.8186 92.6641V92.6265C23.8186 90.1316 22.0094 88.0764 19.4706 88.0764C16.9319 88.0764 15.1585 90.094 15.1585 92.5889V92.6249C15.1585 95.1199 16.9677 97.175 19.5065 97.175C22.0452 97.175 23.8186 95.1575 23.8186 92.6625V92.6641Z" fill="#1B1B1B"/>
<path d="M28.9958 86.2059H31.2431V96.9935H37.967V99.0486H28.9958V86.2075V86.2059Z" fill="#1B1B1B"/>
<path d="M40.3818 86.2059H42.629V96.9935H49.353V99.0486H40.3818V86.2075V86.2059Z" fill="#1B1B1B"/>
<path d="M56.3043 86.1143H58.3871L64.0151 99.0469H61.6392L60.3413 95.947H54.2932L52.979 99.0469H50.6764L56.3043 86.1143ZM59.5205 93.9474L57.3107 88.8103L55.1188 93.9474H59.5222H59.5205Z" fill="#1B1B1B"/>
<path d="M66.3042 86.2059H72.0429C73.5036 86.2059 74.6549 86.6097 75.3861 87.3422C75.9528 87.9112 76.2443 88.6273 76.2443 89.4709V89.5069C76.2443 91.0487 75.3682 91.8743 74.4172 92.3697C75.9153 92.8831 76.9576 93.7464 76.9576 95.4893V95.5252C76.9576 97.8175 75.0751 99.047 72.2253 99.047H66.3042V86.2059ZM73.997 89.8388C73.997 88.83 73.1926 88.2054 71.7498 88.2054H68.5156V91.6177H71.5853C73.0281 91.6177 73.997 91.0487 73.997 89.8748V89.8388ZM72.0787 93.5257H68.5156V97.0474H72.2432C73.7593 97.0474 74.7103 96.4408 74.7103 95.2865V95.2489C74.7103 94.1666 73.8505 93.524 72.0787 93.524V93.5257Z" fill="#1B1B1B"/>
<path d="M79.0099 92.6641V92.6265C79.0099 89.0132 81.7865 85.9853 85.7159 85.9853C89.6454 85.9853 92.3845 88.9756 92.3845 92.5906V92.6265C92.3845 96.2398 89.608 99.2678 85.6785 99.2678C81.749 99.2678 79.0099 96.2774 79.0099 92.6641ZM90.0281 92.6641V92.6265C90.0281 90.1316 88.2189 88.0764 85.6801 88.0764C83.1414 88.0764 81.368 90.094 81.368 92.5889V92.6249C81.368 95.1199 83.1772 97.175 85.7159 97.175C88.2547 97.175 90.0281 95.1575 90.0281 92.6625V92.6641Z" fill="#1B1B1B"/>
<path d="M95.2053 86.2059H100.907C102.514 86.2059 103.774 86.6833 104.598 87.4893C105.274 88.1858 105.658 89.1407 105.658 90.259V90.2966C105.658 92.4057 104.398 93.6712 102.626 94.1862L106.079 99.0486H103.411L100.267 94.572H97.4526V99.0486H95.2053V86.2075V86.2059ZM100.742 92.5725C102.349 92.5725 103.372 91.7288 103.372 90.4257V90.3898C103.372 89.0131 102.385 88.261 100.723 88.261H97.451V92.5725H100.74H100.742Z" fill="#1B1B1B"/>
<path d="M113.045 86.1143H115.127L120.755 99.0469H118.379L117.082 95.947H111.033L109.719 99.0469H107.417L113.045 86.1143ZM116.261 93.9474L114.051 88.8103L111.859 93.9474H116.262H116.261Z" fill="#1B1B1B"/>
<path d="M124.544 88.297H120.469V86.2059H130.865V88.297H126.791V99.047H124.544V88.297Z" fill="#1B1B1B"/>
<path d="M133.427 86.2059H135.675V99.047H133.427V86.2059Z" fill="#1B1B1B"/>
<path d="M138.621 92.6641V92.6265C138.621 89.0132 141.397 85.9853 145.327 85.9853C149.256 85.9853 151.995 88.9756 151.995 92.5906V92.6265C151.995 96.2398 149.219 99.2678 145.289 99.2678C141.36 99.2678 138.621 96.2774 138.621 92.6641ZM149.639 92.6641V92.6265C149.639 90.1316 147.83 88.0764 145.291 88.0764C142.752 88.0764 140.979 90.094 140.979 92.5889V92.6249C140.979 95.1199 142.788 97.175 145.327 97.175C147.865 97.175 149.639 95.1575 149.639 92.6625V92.6641Z" fill="#1B1B1B"/>
<path d="M154.814 86.2059H156.896L163.749 95.0854V86.2059H165.96V99.047H164.078L157.025 89.9107V99.047H154.814V86.2059Z" fill="#1B1B1B"/>
<path d="M-0.43457 108.334V108.296C-0.43457 104.645 2.2882 101.655 6.14276 101.655C8.51868 101.655 9.94359 102.481 11.1682 103.654L9.72537 105.324C8.68316 104.369 7.60512 103.746 6.12485 103.746C3.71311 103.746 1.92343 105.746 1.92343 108.259V108.295C1.92343 110.807 3.69519 112.845 6.14439 112.845C7.71585 112.845 8.72061 112.222 9.81656 111.193L11.261 112.662C9.9273 114.056 8.46494 114.936 6.07111 114.936C2.32566 114.936 -0.43295 112.019 -0.43295 108.332L-0.43457 108.334Z" fill="#1B1B1B"/>
<path d="M12.8005 108.334V108.296C12.8005 104.683 15.577 101.655 19.5065 101.655C23.4359 101.655 26.175 104.645 26.175 108.259V108.295C26.175 111.908 23.3985 114.936 19.469 114.936C15.5395 114.936 12.8005 111.945 12.8005 108.332V108.334ZM23.8186 108.334V108.296C23.8186 105.801 22.0094 103.746 19.4706 103.746C16.9319 103.746 15.1585 105.764 15.1585 108.259V108.295C15.1585 110.79 16.9677 112.845 19.5065 112.845C22.0452 112.845 23.8186 110.827 23.8186 108.332V108.334Z" fill="#1B1B1B"/>
<path d="M28.9958 101.877H31.3897L35.2817 107.949L39.1737 101.877H41.5675V114.718H39.3203V105.508L35.2833 111.563H35.21L31.2089 105.544V114.717H28.9975V101.876L28.9958 101.877Z" fill="#1B1B1B"/>
<path d="M44.9524 101.877H47.3462L51.2382 107.949L55.1303 101.877H57.5241V114.718H55.2768V105.508L51.2399 111.563H51.1666L47.1655 105.544V114.717H44.954V101.876L44.9524 101.877Z" fill="#1B1B1B"/>
<path d="M60.7108 109.269V101.876H62.9581V109.177C62.9581 111.563 64.1827 112.828 66.1922 112.828C68.2017 112.828 69.4084 111.636 69.4084 109.269V101.876H71.6557V109.158C71.6557 112.992 69.498 114.918 66.1547 114.918C62.8115 114.918 60.7092 112.992 60.7092 109.267L60.7108 109.269Z" fill="#1B1B1B"/>
<path d="M74.8405 101.877H76.9233L83.7759 110.757V101.877H85.9873V114.718H84.1048L77.052 105.582V114.718H74.8405V101.877Z" fill="#1B1B1B"/>
<path d="M89.502 101.877H91.7492V114.718H89.502V101.877Z" fill="#1B1B1B"/>
<path d="M98.3834 103.968H94.309V101.877H104.705V103.968H100.631V114.718H98.3834V103.968Z" fill="#1B1B1B"/>
<path d="M110.905 109.655L105.826 101.877H108.494L112.057 107.546L115.674 101.877H118.25L113.171 109.601V114.718H110.905V109.655Z" fill="#1B1B1B"/>
</g>
<defs>
<clipPath id="clip0_462_41285">
<rect width="166" height="126.021" fill="white"/>
</clipPath>
</defs>
</svg>
