<svg width="225" height="46" viewBox="0 0 225 46" fill="none" xmlns="http://www.w3.org/2000/svg" shapeRendering="geometricPrecision" >
<path d="M31.547 30.7365C29.5532 35.0164 25.2569 37.8115 20.4444 37.8115C13.6859 37.8115 8.18776 32.3133 8.18776 25.5548C8.18776 18.7963 13.6859 13.2981 20.4444 13.2981C23.2851 13.2981 26.0531 14.2918 28.2394 16.0953L33.451 9.78021C29.802 6.76843 25.1827 5.11035 20.4444 5.11035C9.17148 5.11106 0 14.2826 0 25.5555C0 36.8285 9.17148 46 20.4444 46C29.2609 46 37.0559 40.3841 39.8424 32.026C39.9843 31.6005 40.1083 31.1699 40.2217 30.7372H31.547V30.7365Z" fill="#1B1B1B"/>
<path d="M44.6919 8.562C45.4682 7.8463 45.9793 6.81767 45.9879 5.35633C45.9701 2.26685 43.7132 0 40.0542 0C37.0866 0 35.0379 1.17762 33.625 2.84996L36.1214 5.22873C37.252 3.95701 38.4296 3.25058 40.1012 3.25058C41.467 3.25058 42.4329 3.90569 42.4329 5.13036V5.30002C42.4329 6.64231 41.2318 7.27389 39.2066 7.27389H37.6996V9.86081H37.7096V9.89217H39.2166C41.2425 9.89217 42.4429 10.5851 42.4429 11.9274V12.0357C42.4429 13.2604 41.477 13.9761 40.1112 13.9761C38.4396 13.9761 37.2619 13.2696 36.1314 11.9979L33.9116 14.6882C35.3116 16.1937 37.2848 17.2267 40.0649 17.2267C43.7389 17.2267 45.9993 15.0033 45.9993 11.8946V11.7862C45.9993 10.2985 45.4811 9.27057 44.6919 8.56343V8.562Z" fill="#1B1B1B"/>
<path d="M45.9886 5.31921C45.9886 5.33213 45.9879 5.34433 45.9879 5.35724C45.9879 5.37016 45.9886 5.38236 45.9886 5.39455V5.31921Z" fill="#1B1B1B"/>
<path d="M61.9993 7.74794V7.71125C61.9993 4.14911 64.6665 1.23145 68.4424 1.23145C70.7698 1.23145 72.1656 2.03703 73.3652 3.1824L71.9519 4.81113C70.9309 3.87952 69.8749 3.27173 68.4248 3.27173C66.0623 3.27173 64.3091 5.22269 64.3091 7.67455V7.70965C64.3091 10.1615 66.0448 12.1492 68.444 12.1492C69.9834 12.1492 70.9676 11.5398 72.0412 10.538L73.4562 11.9705C72.1497 13.3312 70.7172 14.1894 68.3722 14.1894C64.7032 14.1894 62.0009 11.3436 62.0009 7.74634L61.9993 7.74794Z" fill="#1B1B1B"/>
<path d="M75.8761 1.44824H81.461C83.0355 1.44824 84.2702 1.91405 85.0774 2.70049C85.7394 3.38006 86.1158 4.31167 86.1158 5.4028V5.4395C86.1158 7.49733 84.8811 8.73204 83.1455 9.23453L86.5274 13.9787H83.9144L80.834 9.61101H78.0775V13.9787H75.8761V1.44984V1.44824ZM81.2999 7.66005C82.8743 7.66005 83.8761 6.83691 83.8761 5.56552V5.53042C83.8761 4.18724 82.9094 3.45344 81.2807 3.45344H78.0759V7.66005H81.2983H81.2999Z" fill="#1B1B1B"/>
<path d="M88.9108 1.44825H98.2014V3.41675H91.1138V6.6742H97.3974V8.66025H91.1138V12.007H98.2923V13.9755H88.9124V1.44666L88.9108 1.44825Z" fill="#1B1B1B"/>
<path d="M105.439 1.35742H107.479L112.992 13.9756H110.665L109.393 10.9511H103.469L102.181 13.9756H99.9257L105.439 1.35742ZM108.589 9.00014L106.425 3.98795L104.277 9.00014H108.591H108.589Z" fill="#1B1B1B"/>
<path d="M116.703 3.48854H112.711V1.44824H122.895V3.48854H118.904V13.9771H116.703V3.48854Z" fill="#1B1B1B"/>
<path d="M125.406 1.44824H127.608V13.9771H125.406V1.44824Z" fill="#1B1B1B"/>
<path d="M129.973 1.44824H132.408L136.184 11.0786L139.944 1.44824H142.324L137.133 14.0665H135.164L129.973 1.44824Z" fill="#1B1B1B"/>
<path d="M144.567 1.44825H153.857V3.41675H146.77V6.6742H153.053V8.66025H146.77V12.007H153.948V13.9755H144.568V1.44666L144.567 1.44825Z" fill="#1B1B1B"/>
<path d="M61.9993 23.038V23.0013C61.9993 19.4391 64.6665 16.5215 68.4424 16.5215C70.7698 16.5215 72.1656 17.3271 73.3652 18.4724L71.9519 20.1012C70.9309 19.1696 69.8749 18.5618 68.4248 18.5618C66.0623 18.5618 64.3091 20.5127 64.3091 22.9646V22.9997C64.3091 25.4515 66.0448 27.4392 68.444 27.4392C69.9834 27.4392 70.9676 26.8298 72.0412 25.828L73.4562 27.2605C72.1497 28.6213 70.7172 29.4795 68.3722 29.4795C64.7032 29.4795 62.0009 26.6336 62.0009 23.0364L61.9993 23.038Z" fill="#1B1B1B"/>
<path d="M74.9636 23.038V23.0013C74.9636 19.4758 77.6835 16.5215 81.5328 16.5215C85.382 16.5215 88.0652 19.4391 88.0652 22.9662V23.0013C88.0652 26.5267 85.3453 29.4811 81.4961 29.4811C77.6468 29.4811 74.9636 26.5634 74.9636 23.038ZM85.7569 23.038V23.0013C85.7569 20.567 83.9846 18.5618 81.4977 18.5618C79.0107 18.5618 77.2735 20.5303 77.2735 22.9646V22.9997C77.2735 25.434 79.0458 27.4392 81.5328 27.4392C84.0197 27.4392 85.7569 25.4707 85.7569 23.0364V23.038Z" fill="#1B1B1B"/>
<path d="M90.8281 16.7369H93.0295V27.2622H99.6162V29.2674H90.8281V16.7385V16.7369Z" fill="#1B1B1B"/>
<path d="M101.984 16.7369H104.185V27.2622H110.772V29.2674H101.984V16.7385V16.7369Z" fill="#1B1B1B"/>
<path d="M117.58 16.6476H119.62L125.133 29.2658H122.806L121.535 26.2413H115.61L114.323 29.2658H112.067L117.58 16.6476ZM120.731 24.2903L118.566 19.2781L116.419 24.2903H120.732H120.731Z" fill="#1B1B1B"/>
<path d="M127.376 16.7369H132.998C134.429 16.7369 135.557 17.131 136.273 17.8456C136.828 18.4008 137.114 19.0995 137.114 19.9226V19.9577C137.114 21.462 136.255 22.2676 135.324 22.7509C136.791 23.2518 137.812 24.0941 137.812 25.7946V25.8297C137.812 28.0662 135.968 29.2658 133.177 29.2658H127.376V16.7369ZM134.912 20.2815C134.912 19.2973 134.124 18.6879 132.711 18.6879H129.543V22.0171H132.55C133.963 22.0171 134.912 21.462 134.912 20.3166V20.2815ZM133.033 23.8788H129.543V27.3149H133.194C134.679 27.3149 135.611 26.723 135.611 25.5968V25.5601C135.611 24.5041 134.769 23.8772 133.033 23.8772V23.8788Z" fill="#1B1B1B"/>
<path d="M139.822 23.038V23.0013C139.822 19.4758 142.542 16.5215 146.391 16.5215C150.241 16.5215 152.924 19.4391 152.924 22.9662V23.0013C152.924 26.5267 150.204 29.4811 146.355 29.4811C142.505 29.4811 139.822 26.5634 139.822 23.038ZM150.616 23.038V23.0013C150.616 20.567 148.843 18.5618 146.356 18.5618C143.869 18.5618 142.132 20.5303 142.132 22.9646V22.9997C142.132 25.434 143.904 27.4392 146.391 27.4392C148.878 27.4392 150.616 25.4707 150.616 23.0364V23.038Z" fill="#1B1B1B"/>
<path d="M155.687 16.7369H161.272C162.846 16.7369 164.081 17.2027 164.888 17.9892C165.55 18.6688 165.927 19.6004 165.927 20.6915V20.7282C165.927 22.786 164.692 24.0207 162.956 24.5232L166.338 29.2674H163.725L160.645 24.8997H157.888V29.2674H155.687V16.7385V16.7369ZM161.111 22.9487C162.685 22.9487 163.687 22.1256 163.687 20.8542V20.8191C163.687 19.4759 162.72 18.7421 161.091 18.7421H157.887V22.9487H161.109H161.111Z" fill="#1B1B1B"/>
<path d="M173.163 16.6476H175.203L180.716 29.2658H178.389L177.117 26.2413H171.193L169.905 29.2658H167.65L173.163 16.6476ZM176.313 24.2903L174.148 19.2781L172.001 24.2903H176.315H176.313Z" fill="#1B1B1B"/>
<path d="M184.426 18.7772H180.435V16.7369H190.619V18.7772H186.628V29.2658H184.426V18.7772Z" fill="#1B1B1B"/>
<path d="M193.13 16.7369H195.331V29.2658H193.13V16.7369Z" fill="#1B1B1B"/>
<path d="M198.217 23.038V23.0013C198.217 19.4758 200.937 16.5215 204.786 16.5215C208.635 16.5215 211.319 19.4391 211.319 22.9662V23.0013C211.319 26.5267 208.599 29.4811 204.749 29.4811C200.9 29.4811 198.217 26.5634 198.217 23.038ZM209.01 23.038V23.0013C209.01 20.567 207.238 18.5618 204.751 18.5618C202.264 18.5618 200.527 20.5303 200.527 22.9646V22.9997C200.527 25.434 202.299 27.4392 204.786 27.4392C207.273 27.4392 209.01 25.4707 209.01 23.0364V23.038Z" fill="#1B1B1B"/>
<path d="M214.08 16.7369H216.12L222.833 25.4006V16.7369H224.999V29.2658H223.155L216.246 20.3517V29.2658H214.08V16.7369Z" fill="#1B1B1B"/>
<path d="M61.9993 38.3267V38.29C61.9993 34.7278 64.6665 31.8102 68.4424 31.8102C70.7698 31.8102 72.1656 32.6158 73.3652 33.7611L71.9519 35.3899C70.9309 34.4583 69.8749 33.8505 68.4248 33.8505C66.0623 33.8505 64.3091 35.8014 64.3091 38.2533V38.2884C64.3091 40.7403 66.0448 42.7279 68.444 42.7279C69.9834 42.7279 70.9676 42.1201 72.0412 41.1167L73.4562 42.5492C72.1497 43.91 70.7172 44.7682 68.3722 44.7682C64.7032 44.7682 62.0009 41.9223 62.0009 38.3251L61.9993 38.3267Z" fill="#1B1B1B"/>
<path d="M74.9636 38.3267V38.29C74.9636 34.7645 77.6835 31.8102 81.5328 31.8102C85.382 31.8102 88.0652 34.7278 88.0652 38.2533V38.2884C88.0652 41.8138 85.3453 44.7682 81.4961 44.7682C77.6468 44.7682 74.9636 41.8505 74.9636 38.3251V38.3267ZM85.7569 38.3267V38.29C85.7569 35.8557 83.9846 33.8505 81.4977 33.8505C79.0107 33.8505 77.2735 35.819 77.2735 38.2533V38.2884C77.2735 40.7227 79.0458 42.7279 81.5328 42.7279C84.0197 42.7279 85.7569 40.7594 85.7569 38.3251V38.3267Z" fill="#1B1B1B"/>
<path d="M90.8281 32.0271H93.1731L96.9857 37.9518L100.798 32.0271H103.143V44.556H100.942V35.5701L96.9873 41.4772H96.9155L92.996 35.6052V44.5544H90.8297V32.0255L90.8281 32.0271Z" fill="#1B1B1B"/>
<path d="M106.46 32.0271H108.805L112.617 37.9518L116.43 32.0271H118.775V44.556H116.573V35.5701L112.619 41.4772H112.547L108.628 35.6052V44.5544H106.461V32.0255L106.46 32.0271Z" fill="#1B1B1B"/>
<path d="M121.897 39.2391V32.0255H124.098V39.1498C124.098 41.4772 125.298 42.7119 127.266 42.7119C129.235 42.7119 130.417 41.549 130.417 39.2391V32.0255H132.618V39.1306C132.618 42.8714 130.505 44.7506 127.23 44.7506C123.955 44.7506 121.895 42.8714 121.895 39.2375L121.897 39.2391Z" fill="#1B1B1B"/>
<path d="M135.739 32.0271H137.779L144.492 40.6908V32.0271H146.658V44.556H144.814L137.905 35.6419V44.556H135.739V32.0271Z" fill="#1B1B1B"/>
<path d="M150.1 32.0271H152.302V44.556H150.1V32.0271Z" fill="#1B1B1B"/>
<path d="M158.801 34.0674H154.809V32.0271H164.993V34.0674H161.002V44.556H158.801V34.0674Z" fill="#1B1B1B"/>
<path d="M171.068 39.6156L166.093 32.0271H168.706L172.196 37.5577L175.739 32.0271H178.263L173.287 39.5629V44.556H171.068V39.6156Z" fill="#1B1B1B"/>
</svg>
